<svg width="90" height="90" viewBox="0 0 90 90" fill="none" xmlns="http://www.w3.org/2000/svg">
<path d="M3.93358 4.42575H85.5989V85.2803H3.93358V4.42575ZM0.220703 89.0596H89.294V0.646484H0.220703V89.0596ZM60.2871 36.9311C57.3597 36.9311 56.3601 38.4392 56.3601 39.6929C56.3601 41.0556 57.0205 42.0004 60.9655 44.0717C66.7847 46.9425 68.6054 49.7043 68.6054 53.7379C68.6054 59.7884 64.0714 63.0408 57.9487 63.0408C54.7178 63.0408 51.9332 62.3685 50.3445 61.4237C50.0767 61.3146 50.041 61.1148 50.041 60.8241V55.246C50.041 54.8645 50.2195 54.7554 50.4873 54.9371C52.8257 56.4815 55.5032 57.172 57.9487 57.172C60.8762 57.172 62.1079 55.9183 62.1079 54.2285C62.1079 52.8658 61.2511 51.6666 57.5025 49.6861C52.2366 47.1242 50.041 44.526 50.041 40.1653C50.041 35.2958 53.7896 31.244 60.2871 31.244C63.4824 31.244 65.7136 31.7346 66.9275 32.2979C67.2309 32.4796 67.3023 32.7884 67.3023 33.061V38.2393C67.3023 38.5482 67.1238 38.7299 66.749 38.6209C65.1067 37.567 62.6969 36.9311 60.2871 36.9311ZM28.3707 41.419C29.2275 41.4917 29.888 41.4917 31.3696 41.4917C35.7072 41.4917 39.7949 39.9472 39.7949 33.9331C39.7949 29.1364 36.8675 26.7198 31.9229 26.7198C30.4414 26.7198 29.0312 26.7925 28.3529 26.8288L28.3707 41.419ZM21.7482 21.3598C21.7482 21.0872 22.2659 20.9055 22.5693 20.9055C24.9434 20.7965 28.4778 20.7238 32.1371 20.7238C42.4189 20.7238 46.4353 26.4654 46.4353 33.7878C46.4353 43.3813 39.5986 47.5058 31.2089 47.5058C29.7987 47.5058 29.3168 47.4331 28.3172 47.4331V61.9324C28.3172 62.2413 28.2101 62.3867 27.8709 62.3867H22.1945C21.891 62.3867 21.7482 62.2776 21.7482 61.9324V21.3598Z" fill="#31C5F0"/>
</svg>
