<svg width="90" height="90" viewBox="0 0 90 90" fill="none" xmlns="http://www.w3.org/2000/svg">
<path d="M4.07007 4.45367H85.8306V85.4586H4.07007V4.45367ZM0.354492 89.2423H89.564V0.669922H0.354492V89.2423ZM63.4657 43.3644C65.3592 43.3644 66.038 43.3644 66.2166 43.2916C66.2166 43.0188 66.2881 42.8369 66.2881 42.6549C66.2881 40.6175 65.3235 36.8338 61.465 36.8338C57.8923 36.8338 56.3739 40.0172 55.9988 43.3826H63.4657V43.3644ZM55.9274 48.5489C55.9988 53.6606 58.3746 57.0987 64.0373 57.0987C66.2345 57.0987 68.128 56.7894 70.093 55.9344C70.3609 55.8253 70.5396 55.8617 70.5396 56.2073V60.937C70.5396 61.319 70.4324 61.5009 70.1644 61.701C68.1995 62.6833 65.7343 63.1381 62.6976 63.1381C52.8906 63.1381 49.2107 55.7525 49.2107 47.5483C49.2107 38.6165 53.748 31.3037 61.7329 31.3037C69.8429 31.3037 72.6653 38.2345 72.6653 43.8737C72.6653 45.6929 72.5581 47.1663 72.3616 47.894C72.2902 48.2032 72.183 48.3124 71.8793 48.3851C71.1291 48.4943 68.9497 48.658 65.6807 48.658H55.9452V48.5489H55.9274ZM35.9919 44.6923C34.9558 40.4902 32.4192 31.3401 31.4903 26.9015H31.4188C30.6329 31.3219 28.5964 38.8166 27.0781 44.6923H35.9919ZM25.5597 50.8227L22.6301 62.1376C22.5586 62.4468 22.4514 62.556 22.0763 62.556H16.5923C16.2171 62.556 16.1457 62.4468 16.2171 61.9921L26.7744 24.4093C26.953 23.7362 27.0781 23.1905 27.1495 21.2986C27.1495 21.0257 27.2567 20.9166 27.4532 20.9166H35.2595C35.5274 20.9166 35.6346 20.9894 35.706 21.2986L47.5137 62.0648C47.5852 62.3741 47.5137 62.556 47.21 62.556H41.0829C40.7792 62.556 40.6006 62.4468 40.5292 62.174L37.4745 50.8227H25.5597Z" fill="#D8A1FF"/>
</svg>
