<svg width="90" height="90" viewBox="0 0 90 90" fill="none" xmlns="http://www.w3.org/2000/svg">
<path d="M4.00268 4.45367H85.7631V85.4586H4.00268V4.45367ZM0.287109 89.2423H89.4966V0.669922H0.287109V89.2423ZM58.7181 32.2496C58.7181 31.9404 58.8252 31.7949 59.1646 31.7949H65.006C65.3096 31.7949 65.4525 31.904 65.4525 32.2496V62.1194C65.4525 62.4286 65.3811 62.5742 65.006 62.5742H59.2361C58.861 62.5742 58.7538 62.3923 58.7538 62.083V32.2496H58.7181ZM58.3072 23.6453C58.3072 21.2258 59.9864 19.7888 62.0942 19.7888C64.3629 19.7888 65.8813 21.335 65.8813 23.6453C65.8813 26.1374 64.2914 27.5018 62.0228 27.5018C59.8792 27.52 58.3072 26.1556 58.3072 23.6453ZM41.5871 44.6923C40.5511 40.4902 38.0859 31.3401 37.157 26.9015H37.0856C36.2996 31.3219 34.3346 38.8166 32.7805 44.6923H41.5871ZM31.2621 50.8227L28.3325 62.174C28.2611 62.4832 28.1539 62.556 27.7788 62.556H22.3126C21.9375 62.556 21.866 62.4468 21.9375 61.9921L32.4947 24.3729C32.6733 23.6998 32.7984 23.0813 32.8698 21.2258C32.8698 20.953 32.977 20.8438 33.1735 20.8438H40.9798C41.2477 20.8438 41.3549 20.9166 41.4264 21.2258L53.2519 62.0648C53.3233 62.3741 53.2519 62.556 52.9482 62.556H46.7854C46.4817 62.556 46.3031 62.4832 46.2316 62.2104L43.177 50.8227H31.2621Z" fill="#FF7F18"/>
</svg>
