<svg width="59" height="90" viewBox="0 0 59 90" fill="none" xmlns="http://www.w3.org/2000/svg">
<path d="M15.0508 89.6605C23.0893 89.6605 29.6095 83.0208 29.6095 74.8348V60.0091H15.0508C7.01232 60.0091 0.492188 66.6488 0.492188 74.8348C0.492188 83.0208 7.01232 89.6605 15.0508 89.6605Z" fill="#0ACF83"/>
<path d="M0.492188 45.1652C0.492188 36.9793 7.01232 30.3395 15.0508 30.3395H29.6095V60.0091H15.0508C7.01232 59.9909 0.492188 53.3512 0.492188 45.1652Z" fill="#A259FF"/>
<path d="M0.492188 15.4956C0.492188 7.30965 7.01232 0.669922 15.0508 0.669922H29.6095V30.3395H15.0508C7.01232 30.3395 0.492188 23.6816 0.492188 15.4956Z" fill="#F24E1E"/>
<path d="M29.627 0.669922H44.1856C52.2241 0.669922 58.7442 7.30965 58.7442 15.4956C58.7442 23.6816 52.2241 30.3213 44.1856 30.3213H29.627V0.669922V0.669922Z" fill="#FF7262"/>
<path d="M58.7442 45.1652C58.7442 53.3512 52.2241 59.9909 44.1856 59.9909C36.1471 59.9909 29.627 53.3512 29.627 45.1652C29.627 36.9793 36.1471 30.3395 44.1856 30.3395C52.2241 30.3395 58.7442 36.9793 58.7442 45.1652Z" fill="#1ABCFE"/>
</svg>
