<svg width="22" height="20" viewBox="0 0 22 20" fill="none" xmlns="http://www.w3.org/2000/svg">
<path d="M10.182 0.859336C10.4818 -0.0609409 11.7837 -0.06094 12.0836 0.859337L13.8347 6.23373C13.9688 6.64536 14.3525 6.92394 14.7855 6.92394H20.4462C21.4156 6.92394 21.8179 8.16497 21.0329 8.73373L16.4581 12.0484C16.1066 12.303 15.9595 12.7553 16.094 13.168L17.8426 18.5346C18.1426 19.4554 17.0893 20.2224 16.305 19.6542L11.7195 16.3318C11.3694 16.0782 10.8961 16.0782 10.546 16.3318L5.9605 19.6542C5.17624 20.2224 4.12295 19.4554 4.42298 18.5346L6.17155 13.168C6.306 12.7553 6.15892 12.303 5.80746 12.0484L1.23259 8.73373C0.447582 8.16497 0.849913 6.92394 1.81931 6.92394H7.48006C7.91299 6.92394 8.29675 6.64536 8.43087 6.23373L10.182 0.859336Z" fill="#E5E5E5"/>
</svg>
